# xmcd CD database file
#
# Track frame offsets:
#	150
#	17087
#	29400
#	42267
#	56605
#	70747
#	83782
#	95110
#	109077
#	122025
#
# Disc length: 1830 seconds
#
# Revision: 2
# Processed by: cddbd v1.5.2PL0 Copyright (c) Steve Scherf et al.
# Submitted via: CDex 1.51
#
DISCID=8207240a
DTITLE=Merle Haggard - Best of the Best
DYEAR=2002
DGENRE=Country
TTITLE0=Today I Started Loving You Again
TTITLE1=Okie From Muskogee
TTITLE2=Swinging Doors
TTITLE3=Branded Man
TTITLE4=I'm A Lonesome Fugitive
TTITLE5=The Fightin' Side of Me
TTITLE6=(My Friends Are Gonna Be) Strangers
TTITLE7=I Threw Away the Rose
TTITLE8=Sing Me Back Home
TTITLE9=Twinkle, Twinkle Lucky Star
EXTD=YEAR: 2002
EXTT0=
EXTT1=
EXTT2=
EXTT3=
EXTT4=
EXTT5=
EXTT6=
EXTT7=
EXTT8=
EXTT9=
PLAYORDER=
